<?xml version="1.0" encoding="UTF-8"?>
<svg width="388px" height="94px" viewBox="0 0 388 94" version="1.1" xmlns="http://www.w3.org/2000/svg" xmlns:xlink="http://www.w3.org/1999/xlink">
    <!-- Generator: Sketch 46.1 (44463) - http://www.bohemiancoding.com/sketch -->
    <title>Desktop@1x</title>
    <desc>Created with Sketch.</desc>
    <defs>
        <path d="M4.11359524,0.945206642 C4.74542857,0.319756458 5.5452381,0 6.30011905,0 C6.93370635,0 7.53572222,0.225413284 7.97974603,0.684704797 L9.05816667,1.80002952 L5.86864286,4.9558155 L6.74940476,5.86729889 L9.93825397,2.71151292 L10.8182063,3.62231365 L7.62989683,6.77837269 L8.51025397,7.68985609 L11.6999127,4.53366052 L12.5798651,5.44514391 L9.39034127,8.60147601 L10.2715079,9.51173063 L13.4603571,6.35635424 L14.334373,7.26060148 L11.152,10.4096974 L12.0323571,11.3211808 L15.2144603,8.1722214 L16.2994921,9.29409963 C17.2715952,10.3000627 17.1184603,12.0487565 15.9554444,13.1988967 L12.8857302,16.2371292 C11.8588492,17.2536052 10.3898333,17.4593579 9.38993651,16.7995018 L9.38993651,19.0155424 L10.0677778,19.0155424 L10.0677778,21.9251624 L9.61700794,21.9251624 L9.59312698,36.9995904 L6.96865079,37 L6.9922619,21.9251624 L6.54054762,21.9251624 L6.54054762,19.0155424 L7.21798413,19.0155424 L7.21798413,14.301524 L7.055,14.4629041 L6.17464286,13.5521033 L7.21798413,12.5192435 L7.21798413,10.7369631 L5.29455556,12.6406199 L4.41379365,11.7300923 L7.62854762,8.54809225 L6.74792063,7.63742804 L3.53330159,10.8183358 L2.65253968,9.9068524 L5.86688889,6.72594465 L4.98653175,5.81528044 L1.77204762,8.99618819 L0.700777778,7.88769004 C-0.271730159,6.88172694 -0.118190476,5.13357934 1.04401587,3.98248339 L4.11359524,0.945206642 Z M8.50903968,9.45998524 L8.4954127,9.47391144 L8.5222619,9.47391144 L8.50903968,9.45998524 Z M9.39034127,12.1529299 L9.39034127,13.9352103 L11.150246,12.1932066 L10.2702937,11.282679 L9.39034127,12.1529299 Z" id="path-1"></path>
    </defs>
    <g id="Page-1" stroke="none" stroke-width="1" fill="none" fill-rule="evenodd">
        <g id="Desktop">
            <g id="Group" transform="translate(8.000000, 3.000000)">
                <g id="Page-1" transform="translate(168.500000, 44.000000) rotate(-11.000000) translate(-168.500000, -44.000000) translate(144.000000, 4.000000)">
                    <g id="Group-17">
                        <path d="M24.4485635,72.3102867 C17.4306596,72.3102867 14.1383712,71.8097808 12.6123712,71.3900843 C11.8437173,71.1785497 11.5153904,70.9864418 11.3908712,70.8944351 L11.3908712,66.2845194 C11.7471981,66.4186172 12.203275,66.5583811 12.7866981,66.6940978 C15.3376596,67.2876897 19.2612942,67.5885329 24.4485635,67.5885329 C29.6358327,67.5885329 33.5594673,67.2876897 36.1104288,66.6940978 C36.6938519,66.5583811 37.1499288,66.4186172 37.5062558,66.2845194 L37.5062558,70.9130523 C37.1511404,71.1856998 35.0429288,72.3102867 24.4485635,72.3102867" id="Fill-1" fill="#323131"></path>
                        <path d="M38.1793327,65.1602024 C38.1793327,65.1602024 36.8331788,66.9139966 24.4485635,66.9139966 C12.0639481,66.9139966 10.7177942,65.1602024 10.7177942,65.1602024 L10.7177942,71.0961214 C10.7177942,71.0961214 10.7177942,72.9848229 24.4485635,72.9848229 C38.3139481,72.9848229 38.1793327,71.0961214 38.1793327,71.0961214 L38.1793327,65.1602024 Z M36.8331788,67.2125464 L36.8331788,70.5123777 C36.0517365,70.8455987 33.2684288,71.6357504 24.4485635,71.6357504 C15.6452558,71.6357504 12.8518519,70.8350759 12.0639481,70.4964587 L12.0639481,67.2125464 C14.5721019,67.8978752 18.7980827,68.2630691 24.4485635,68.2630691 C30.0990442,68.2630691 34.325025,67.8978752 36.8331788,67.2125464 L36.8331788,67.2125464 Z" id="Fill-3" fill="#323131"></path>
                        <path d="M24.4485635,64.7554806 C17.4306596,64.7554806 14.1383712,64.2549747 12.6123712,63.8352782 C11.8437173,63.6237437 11.5153904,63.4316358 11.3908712,63.339629 L11.3908712,58.7297133 C11.7471981,58.8638111 12.203275,59.003575 12.7866981,59.1392917 C15.3376596,59.7328836 19.2612942,60.0337268 24.4485635,60.0337268 C29.6358327,60.0337268 33.5594673,59.7328836 36.1104288,59.1392917 C36.6938519,59.003575 37.1499288,58.8638111 37.5062558,58.7297133 L37.5062558,63.3582462 C37.1511404,63.6308938 35.0429288,64.7554806 24.4485635,64.7554806" id="Fill-5" fill="#323131"></path>
                        <path d="M38.1793327,57.6053963 C38.1793327,57.6053963 36.8331788,59.3591906 24.4485635,59.3591906 C12.0639481,59.3591906 10.7177942,57.6053963 10.7177942,57.6053963 L10.7177942,63.5413153 C10.7177942,63.5413153 10.7177942,65.4300169 24.4485635,65.4300169 C38.3139481,65.4300169 38.1793327,63.5413153 38.1793327,63.5413153 L38.1793327,57.6053963 Z M36.8331788,59.6577403 L36.8331788,62.9575717 C36.0517365,63.2907926 33.2684288,64.0809444 24.4485635,64.0809444 C15.6452558,64.0809444 12.8518519,63.2802698 12.0639481,62.9416526 L12.0639481,59.6577403 C14.5721019,60.3430691 18.7980827,60.7082631 24.4485635,60.7082631 C30.0990442,60.7082631 34.325025,60.3430691 36.8331788,59.6577403 L36.8331788,59.6577403 Z" id="Fill-7" fill="#323131"></path>
                        <path d="M24.4485635,79.3254637 C21.3261596,79.3254637 18.736025,77.3517707 18.3158904,74.7955481 C19.4827365,74.875683 21.8136019,75.0084317 24.4485635,75.0084317 C27.3265058,75.0084317 29.4878904,74.882968 30.5829865,74.8020236 C30.1728135,77.3908938 27.6256212,79.3254637 24.4485635,79.3254637" id="Fill-9" fill="#323131"></path>
                        <path d="M31.3139481,74.0640809 C31.3139481,74.0640809 28.6216404,74.3338954 24.4485635,74.3338954 C20.6793327,74.3338954 17.5831788,74.0640809 17.5831788,74.0640809 C17.5831788,77.3424621 20.6793327,80 24.4485635,80 C28.3524096,80 31.3139481,77.3424621 31.3139481,74.0640809 M19.2209096,75.5293086 C20.4994865,75.6031029 22.3656596,75.682968 24.4485635,75.682968 C26.6686404,75.682968 28.4687173,75.6084992 29.6876596,75.5369983 C28.9651788,77.3653963 26.9209096,78.6509275 24.4485635,78.6509275 C22.9453135,78.6509275 21.5361596,78.1494772 20.4806404,77.2389882 C19.9059673,76.743204 19.4796404,76.1602698 19.2209096,75.5293086" id="Fill-11" fill="#323131"></path>
                        <path d="M24.4999731,57.2006745 C14.0221846,57.2006745 11.8322615,56.1129174 11.44255,55.8328499 L11.44605,53.6299494 C11.4713577,48.2779089 9.58364615,43.133086 6.13062692,39.1450927 C2.05016538,34.4326476 0.67305,30.750489 0.67305,24.5531197 C0.67305,11.3864418 11.3617808,0.674536256 24.4999731,0.674536256 C30.8251462,0.674536256 36.7752808,3.11406408 41.2540692,7.54401349 C45.7332615,11.9742327 48.2443769,17.9042159 48.3248769,24.2416189 C48.3974346,29.9390219 46.4358192,35.4799325 42.8014731,39.8436425 C39.4199346,43.903946 37.5576654,48.9815852 37.5576654,54.1413828 L37.5576654,55.8486341 C37.1827615,56.1202024 35.0287808,57.2006745 24.4999731,57.2006745" id="Fill-13" fill="#FFCD00"></path>
                        <path d="M24.5000269,0 L24.4998923,0 C10.9688923,0 2.69230769e-05,10.9927825 2.69230769e-05,24.5531197 C2.69230769e-05,30.898887 1.41348846,34.7264755 5.62237308,39.5871838 C8.98964231,43.476425 10.7972577,48.4797302 10.7728923,53.6287352 L10.7692577,56.0423609 C10.7692577,56.0423609 10.7692577,57.8752108 24.5000269,57.8752108 C38.3654115,57.8752108 38.2307962,56.0423609 38.2307962,56.0423609 L38.2307962,54.1413828 C38.2307962,49.0609106 40.0697769,44.1763238 43.3181808,40.2758853 C46.9285654,35.9409106 49.0756808,30.3391568 48.9978731,24.2331197 C48.8267769,10.7602024 37.9444692,0 24.5000269,0 M24.5000269,1.34907251 C30.6465654,1.34907251 36.4285654,3.71979764 40.7808154,8.02441821 C45.1334692,12.3294435 47.5736423,18.0918718 47.6518538,24.250253 C47.6877962,27.0722428 47.2247192,29.8340641 46.2755462,32.4590894 C45.3592192,34.9929174 44.0164308,37.3320742 42.2847385,39.4115346 C38.8023731,43.592715 36.8846423,48.8238786 36.8846423,54.1413828 L36.8846423,55.4424283 C36.5926615,55.5557504 36.0170462,55.7390894 35.0229115,55.9132546 C32.7005269,56.32 29.1601423,56.5261383 24.5000269,56.5261383 C15.7470654,56.5261383 12.9271423,55.757032 12.1163538,55.4238111 L12.1190462,53.6352108 C12.1451615,48.1176391 10.1990269,42.81457 6.63898846,38.7031366 C4.57035385,36.3139292 3.29191154,34.2943676 2.49377692,32.1546037 C1.70008462,30.0269815 1.34618077,27.6825632 1.34618077,24.5531197 C1.34618077,18.3550759 3.75458462,12.528027 8.1277,8.14543002 C12.50095,3.76283305 18.3153923,1.34907251 24.5000269,1.34907251" id="Fill-15" fill="#323131"></path>
                    </g>
                    <g id="Group-20" transform="translate(16.000000, 21.000000)">
                        <mask id="mask-2" fill="white">
                            <use xlink:href="#path-1"></use>
                        </mask>
                        <g id="Clip-19"></g>
                        <polygon id="Fill-18" fill="#363434" mask="url(#mask-2)" points="-0.822206349 37.8937343 17.8220714 37.8937343 17.8220714 -0.893734317 -0.822206349 -0.893734317"></polygon>
                    </g>
                </g>
                <text id="BET" font-family="Norwester-Regular, Norwester" font-size="72" font-style="condensed" font-weight="normal" fill="#323131">
                    <tspan x="0" y="75">BET</tspan>
                </text>
                <text id="ALKS" font-family="Norwester-Regular, Norwester" font-size="72" font-style="condensed" font-weight="normal" fill="#323131">
                    <tspan x="223" y="75">ALKS</tspan>
                </text>
                <text id="A" font-family="Norwester-Regular, Norwester" font-size="72" font-style="condensed" font-weight="normal" fill="#323131">
                    <tspan x="102" y="75">A</tspan>
                </text>
                <text id="T" font-family="Norwester-Regular, Norwester" font-size="72" font-style="condensed" font-weight="normal" fill="#323131">
                    <tspan x="195" y="75">T</tspan>
                </text>
            </g>
        </g>
    </g>
</svg>